<svg width="65" height="65" viewBox="0 0 65 65" fill="none" xmlns="http://www.w3.org/2000/svg">
<g id="Social Icons" clip-path="url(#clip0_10_239)">
<path id="Vector" d="M65 32.5C65 14.5507 50.4493 0 32.5 0C14.5507 0 0 14.5507 0 32.5C0 48.7214 11.8847 62.167 27.4219 64.6052V41.8945H19.1699V32.5H27.4219V25.3398C27.4219 17.1945 32.274 12.6953 39.6976 12.6953C43.2523 12.6953 46.9727 13.3301 46.9727 13.3301V21.3281H42.8746C38.8375 21.3281 37.5781 23.8335 37.5781 26.4063V32.5H46.5918L45.1509 41.8945H37.5781V64.6052C53.1153 62.167 65 48.7214 65 32.5Z" fill="#1877F2"/>
<path id="Vector_2" d="M45.1509 41.8945L46.5918 32.5H37.5781V26.4062C37.5781 23.8361 38.8375 21.3281 42.8746 21.3281H46.9727V13.3301C46.9727 13.3301 43.2536 12.6953 39.6976 12.6953C32.274 12.6953 27.4219 17.1945 27.4219 25.3398V32.5H19.1699V41.8945H27.4219V64.6052C30.7868 65.1316 34.2132 65.1316 37.5781 64.6052V41.8945H45.1509Z" fill="white"/>
</g>
<defs>
<clipPath id="clip0_10_239">
<rect width="65" height="65" fill="white"/>
</clipPath>
</defs>
</svg>
