<svg width="71" height="71" viewBox="0 0 71 71" fill="none" xmlns="http://www.w3.org/2000/svg">
<g id="Social Icons" clip-path="url(#clip0_11_242)">
<path id="Vector" d="M64.4679 55.3313C63.3942 57.8118 62.1232 60.0952 60.6507 62.1944C58.6435 65.0563 57 67.0372 55.7334 68.1372C53.77 69.9428 51.6664 70.8676 49.4137 70.9202C47.7966 70.9202 45.8463 70.46 43.5762 69.5265C41.2985 68.5974 39.2054 68.1372 37.2915 68.1372C35.2843 68.1372 33.1316 68.5974 30.829 69.5265C28.5229 70.46 26.6651 70.9464 25.2447 70.9947C23.0845 71.0867 20.9314 70.1357 18.7822 68.1372C17.4104 66.9408 15.6947 64.8897 13.6392 61.9841C11.4339 58.8812 9.62084 55.2831 8.20045 51.181C6.67926 46.7502 5.91669 42.4596 5.91669 38.3058C5.91669 33.5477 6.94484 29.4438 9.00421 26.0048C10.6227 23.2425 12.7759 21.0634 15.4707 19.4638C18.1655 17.8642 21.0773 17.049 24.2131 16.9968C25.9288 16.9968 28.1789 17.5276 30.9749 18.5706C33.7631 19.6172 35.5534 20.1479 36.3383 20.1479C36.9252 20.1479 38.914 19.5273 42.2855 18.2901C45.4738 17.1428 48.1647 16.6677 50.3691 16.8548C56.3426 17.3369 60.8304 19.6917 63.8149 23.934C58.4725 27.171 55.8298 31.7048 55.8824 37.5209C55.9306 42.0512 57.5741 45.8211 60.8041 48.8144C62.2678 50.2037 63.9025 51.2774 65.7213 52.04C65.3269 53.1838 64.9105 54.2795 64.4679 55.3313ZM50.768 1.42114C50.768 4.97195 49.4707 8.28733 46.885 11.356C43.7646 15.0041 39.9903 17.1121 35.8974 16.7795C35.8453 16.3535 35.8151 15.9051 35.8151 15.434C35.8151 12.0252 37.299 8.37717 39.9342 5.39439C41.2499 3.88415 42.9232 2.62841 44.9523 1.62668C46.977 0.639895 48.8922 0.0941833 50.6935 0.000732422C50.7461 0.47542 50.768 0.950138 50.768 1.42109V1.42114Z" fill="black"/>
</g>
<defs>
<clipPath id="clip0_11_242">
<rect width="71" height="71" fill="white"/>
</clipPath>
</defs>
</svg>
